# File created by Blade
# Date/Time:  Thu Sep 25 18:39:44 2014
# Frame Rate: 120.000 fps
#------------------------------------------------------
:FULLY-SPECIFIED
:DEGREES
1305
root -0.881520 33.149266 -2.246223 5.966647 5.447106 -0.434922
Spine -13.093115 5.307734 -0.416916
Head 9.660671 -10.514905 7.840827
LeftShoulder -14.848906 -13.311370 44.607886
LeftArm 132.195996 -58.998396 -114.413197
LeftForeArm -58.259464 0.000000 112.755150
LeftHand -9.274273 0.000000 -7.654698
LeftHandThumb1 -26.253704 0.000000 33.147579
RightShoulder -39.629373 56.617066 -91.662561
RightArm 18.765073 19.918185 42.120423
RightForeArm 31.094856 -0.000000 77.351102
RightHand -0.289340 -0.000000 9.596212
RightHandThumb1 -24.326973 -0.000000 -32.862282
LeftUpLeg 0.660842 5.032325 1.741218
LeftLeg -0.971330 -0.000000 0.000000
LeftFoot -8.125278 0.918274 -10.766798
LeftToeBase 9.991559 -0.000000 -0.000000
RightUpLeg 0.189831 -7.516901 -0.200478
RightLeg 1.427611 -0.000000 -0.000000
RightFoot -7.504992 -3.089386 0.420408
RightToeBase -0.973766 -0.000000 0.000000
1306
root -0.878883 33.147174 -2.252711 6.018623 5.465456 -0.464214
Spine -13.109928 5.395958 -0.409916
Head 9.403671 -10.894041 8.009257
LeftShoulder -14.704052 -12.902440 44.345079
LeftArm 132.330551 -59.277727 -115.452310
LeftForeArm -57.985522 -0.000000 111.557619
LeftHand -9.511561 -0.000000 -7.051234
LeftHandThumb1 -26.253704 0.000000 33.147579
RightShoulder -38.870055 56.215052 -90.597465
RightArm 18.475289 20.410695 41.594095
RightForeArm 30.105542 -0.000000 76.281687
RightHand -0.594484 -0.000000 8.717686
RightHandThumb1 -24.326973 -0.000000 -32.862282
LeftUpLeg 0.604977 5.056751 1.761211
LeftLeg -0.992955 -0.000000 0.000000
LeftFoot -8.135782 0.874431 -10.750427
LeftToeBase 9.944176 -0.000000 -0.000000
RightUpLeg 0.142874 -7.570651 -0.168526
RightLeg 1.392377 -0.000000 -0.000000
RightFoot -7.493335 -3.050864 0.409224
RightToeBase -0.906115 -0.000000 0.000000
1307
root -0.875668 33.144438 -2.259390 6.067402 5.494250 -0.485702
Spine -13.135416 5.494091 -0.444785
Head 9.126391 -11.378582 8.215519
LeftShoulder -14.563420 -12.519973 44.111222
LeftArm 132.333808 -59.465198 -116.356118
LeftForeArm -57.786966 -0.000000 110.394661
LeftHand -9.967048 -0.000000 -6.524964
LeftHandThumb1 -26.253704 0.000000 33.147579
RightShoulder -37.544253 55.366402 -88.548378
RightArm 18.939204 21.238063 41.139105
RightForeArm 29.219141 0.000000 75.059969
RightHand -0.733052 -0.000000 8.139029
RightHandThumb1 -24.326973 -0.000000 -32.862282
LeftUpLeg 0.551979 5.059209 1.772864
LeftLeg -1.018610 -0.000000 0.000000
LeftFoot -8.139910 0.858245 -10.715666
LeftToeBase 9.907840 -0.000000 -0.000000
RightUpLeg 0.092776 -7.660123 -0.146686
RightLeg 1.376278 -0.000000 -0.000000
RightFoot -7.500804 -2.978476 0.423022
RightToeBase -0.918177 -0.000000 0.000000
1308
root -0.872918 33.143143 -2.266969 6.102776 5.524708 -0.526868
Spine -13.147759 5.583475 -0.436312
Head 8.901501 -11.810763 8.436879
LeftShoulder -14.413027 -12.278487 43.880933
LeftArm 132.057436 -59.682196 -116.993335
LeftForeArm -57.578455 0.000000 109.309756
LeftHand -10.284364 -0.000000 -5.736957
LeftHandThumb1 -26.253704 0.000000 33.147579
RightShoulder -35.876226 54.231488 -86.048243
RightArm 19.646619 22.275015 40.621631
RightForeArm 28.618321 -0.000000 73.873333
RightHand -0.861535 -0.000000 7.685304
RightHandThumb1 -24.326973 -0.000000 -32.862282
LeftUpLeg 0.509661 5.031619 1.804989
LeftLeg -1.044719 -0.000000 0.000000
LeftFoot -8.163489 0.871269 -10.688831
LeftToeBase 9.930494 -0.000000 -0.000000
RightUpLeg 0.062337 -7.746158 -0.107470
RightLeg 1.335530 -0.000000 -0.000000
RightFoot -7.483391 -2.888912 0.468404
RightToeBase -0.878406 -0.000000 0.000000
1309
root -0.873513 33.142172 -2.277682 6.138743 5.563153 -0.543529
Spine -13.159352 5.632538 -0.472280
Head 8.638488 -12.145607 8.699028
LeftShoulder -14.246296 -12.021782 43.611312
LeftArm 131.821409 -59.827316 -117.580290
LeftForeArm -57.407187 -0.000000 108.167286
LeftHand -10.366334 -0.000000 -5.302184
LeftHandThumb1 -26.253704 0.000000 33.147579
RightShoulder -34.481074 53.264837 -83.904766
RightArm 20.069725 23.137549 40.127857
RightForeArm 28.156648 -0.000000 72.763063
RightHand -0.975405 -0.000000 7.079924
RightHandThumb1 -24.326973 -0.000000 -32.862282
LeftUpLeg 0.447256 4.990245 1.821594
LeftLeg -1.041111 -0.000000 0.000000
LeftFoot -8.168314 0.859729 -10.692906
LeftToeBase 9.926414 -0.000000 -0.000000
RightUpLeg 0.027359 -7.794778 -0.080077
RightLeg 1.295354 -0.000000 -0.000000
RightFoot -7.436567 -2.889459 0.445576
RightToeBase -1.009210 -0.000000 0.000000
1310
root -0.869802 33.141677 -2.285651 6.157317 5.600623 -0.562516
Spine -13.170917 5.687891 -0.498499
Head 8.378699 -12.486406 8.941051
LeftShoulder -14.001400 -11.729845 43.305768
LeftArm 131.682428 -59.951100 -118.223215
LeftForeArm -57.230823 -0.000000 107.105643
LeftHand -10.592559 -0.000000 -4.963927
LeftHandThumb1 -26.253704 0.000000 33.147579
RightShoulder -32.888443 52.053738 -81.436227
RightArm 20.717417 24.169492 39.670201
RightForeArm 27.948615 -0.000000 71.677426
RightHand -1.094318 0.000000 6.818332
RightHandThumb1 -24.326973 -0.000000 -32.862282
LeftUpLeg 0.412931 4.932523 1.828033
LeftLeg -1.040741 -0.000000 0.000000
LeftFoot -8.192601 0.911057 -10.715728
LeftToeBase 9.916020 -0.000000 -0.000000
RightUpLeg 0.011195 -7.860502 -0.064939
RightLeg 1.267747 -0.000000 -0.000000
RightFoot -7.436097 -2.844982 0.448467
RightToeBase -0.925310 -0.000000 0.000000
1311
root -0.867238 33.141777 -2.297694 6.180316 5.656092 -0.585473
Spine -13.185418 5.726018 -0.529234
Head 8.098795 -12.813423 9.181899
LeftShoulder -13.731609 -11.372361 42.979181
LeftArm 131.687368 -59.980654 -118.949575
LeftForeArm -56.974213 -0.000000 106.052964
LeftHand -10.869088 -0.000000 -4.677287
LeftHandThumb1 -26.253704 0.000000 33.147579
RightShoulder -31.132014 50.545734 -78.648046
RightArm 21.637484 25.370128 39.171087
RightForeArm 27.836119 -0.000000 70.586353
RightHand -1.278698 -0.000000 6.447330
RightHandThumb1 -24.326973 -0.000000 -32.862282
LeftUpLeg 0.352615 4.843068 1.852436
LeftLeg -1.029893 -0.000000 0.000000
LeftFoot -8.194114 0.914799 -10.695260
LeftToeBase 9.928854 -0.000000 -0.000000
RightUpLeg -0.014556 -7.890733 -0.039183
RightLeg 1.236157 -0.000000 -0.000000
RightFoot -7.406381 -2.861468 0.477733
RightToeBase -0.871279 -0.000000 0.000000
1312
root -0.862413 33.142030 -2.305336 6.163816 5.701651 -0.602806
Spine -13.169686 5.798459 -0.561310
Head 7.819699 -13.100622 9.418001
LeftShoulder -13.459735 -11.221962 42.753159
LeftArm 131.191486 -60.056169 -119.341194
LeftForeArm -56.637955 -0.000000 105.151589
LeftHand -11.024618 -0.000000 -4.306565
LeftHandThumb1 -26.253704 0.000000 33.147579
RightShoulder -29.584209 49.150957 -76.229942
RightArm 22.207387 26.463913 38.684969
RightForeArm 27.668231 -0.000000 69.623452
RightHand -1.156451 -0.000000 6.411797
RightHandThumb1 -24.326973 -0.000000 -32.862282
LeftUpLeg 0.349494 4.774163 1.865039
LeftLeg -1.033159 -0.000000 0.000000
LeftFoot -8.204106 0.939644 -10.698448
LeftToeBase 9.963774 -0.000000 -0.000000
RightUpLeg 0.006312 -7.931070 -0.030206
RightLeg 1.206323 -0.000000 -0.000000
RightFoot -7.375500 -2.844190 0.523985
RightToeBase -0.873465 -0.000000 0.000000
1313
root -0.857607 33.142408 -2.314001 6.138109 5.755939 -0.623984
Spine -13.154936 5.845109 -0.590676
Head 7.533432 -13.365735 9.645208
LeftShoulder -13.334523 -11.850357 42.875162
LeftArm 128.972492 -60.308200 -118.500613
LeftForeArm -56.078736 -0.000000 104.428343
LeftHand -11.387265 0.000000 -3.933720
LeftHandThumb1 -26.253704 0.000000 33.147579
RightShoulder -28.123159 47.680546 -73.788630
RightArm 22.878893 27.478112 38.202776
RightForeArm 27.491299 0.000000 68.667559
RightHand -1.166371 -0.000000 6.184464
RightHandThumb1 -24.326973 -0.000000 -32.862282
LeftUpLeg 0.346573 4.680667 1.881779
LeftLeg -1.021361 -0.000000 0.000000
LeftFoot -8.211760 0.973940 -10.694864
LeftToeBase 9.977874 -0.000000 -0.000000
RightUpLeg 0.024436 -7.978214 -0.017684
RightLeg 1.197755 -0.000000 -0.000000
RightFoot -7.351239 -2.835565 0.542741
RightToeBase -0.918768 -0.000000 0.000000
1314
root -0.853458 33.143859 -2.322425 6.087527 5.804749 -0.638957
Spine -13.095970 5.877191 -0.615126
Head 7.243231 -13.626379 9.888256
LeftShoulder -13.133628 -11.819822 42.709213
LeftArm 128.116139 -60.176456 -118.644011
LeftForeArm -55.399480 -0.000000 103.625081
LeftHand -11.649127 -0.000000 -3.903477
LeftHandThumb1 -26.253704 0.000000 33.147579
RightShoulder -26.858100 46.204757 -71.528086
RightArm 23.547533 28.424984 37.809203
RightForeArm 27.127665 0.000000 67.744882
RightHand -1.183809 -0.000000 6.358891
RightHandThumb1 -24.326973 -0.000000 -32.862282
LeftUpLeg 0.366611 4.603391 1.894827
LeftLeg -1.003336 -0.000000 0.000000
LeftFoot -8.209767 1.011507 -10.675058
LeftToeBase 9.917216 -0.000000 -0.000000
RightUpLeg 0.062396 -8.023406 -0.012405
RightLeg 1.200902 -0.000000 -0.000000
RightFoot -7.319646 -2.839214 0.539047
RightToeBase -0.981758 -0.000000 0.000000
1315
root -0.849700 33.144877 -2.330730 6.030404 5.854752 -0.658845
Spine -13.041949 5.888624 -0.605120
Head 6.962761 -13.799164 9.982071
LeftShoulder -12.863324 -11.607569 42.412871
LeftArm 127.589868 -59.986403 -118.985378
LeftForeArm -54.751902 -0.000000 102.836288
LeftHand -11.763023 -0.000000 -3.921675
LeftHandThumb1 -26.253704 0.000000 33.147579
RightShoulder -25.583404 44.637520 -69.236478
RightArm 24.296491 29.381062 37.415216
RightForeArm 26.791882 0.000000 66.871026
RightHand -1.297252 -0.000000 5.918180
RightHandThumb1 -24.326973 -0.000000 -32.862282
LeftUpLeg 0.391609 4.530395 1.916740
LeftLeg -0.983165 -0.000000 0.000000
LeftFoot -8.221771 1.022464 -10.670530
LeftToeBase 9.962341 -0.000000 -0.000000
RightUpLeg 0.094050 -8.073929 -0.005340
RightLeg 1.232291 -0.000000 -0.000000
RightFoot -7.327190 -2.810678 0.606378
RightToeBase -0.876670 -0.000000 0.000000
1316
root -0.843750 33.145267 -2.340275 5.977247 5.892699 -0.657234
Spine -12.992207 5.929756 -0.617625
Head 6.638641 -13.991419 10.061045
LeftShoulder -12.586202 -11.421406 42.108612
LeftArm 126.956513 -59.704036 -119.215655
LeftForeArm -54.072396 -0.000000 102.090666
LeftHand -11.871895 -0.000000 -3.631429
LeftHandThumb1 -26.253704 0.000000 33.147579
RightShoulder -24.399124 43.038201 -67.063400
RightArm 24.971299 30.263380 36.994259
RightForeArm 26.289845 -0.000000 66.028029
RightHand -1.411197 -0.000000 5.753978
RightHandThumb1 -24.326973 -0.000000 -32.862282
LeftUpLeg 0.409195 4.471737 1.909188
LeftLeg -0.952559 -0.000000 0.000000
LeftFoot -8.228248 1.040501 -10.637072
LeftToeBase 9.946649 -0.000000 -0.000000
RightUpLeg 0.133212 -8.039334 -0.018730
RightLeg 1.237515 -0.000000 -0.000000
RightFoot -7.329570 -2.885768 0.630420
RightToeBase -0.851721 -0.000000 0.000000
